# xmcd CD database file
#
# Track frame offsets:
#	150
#	17435
#	33504
#	54081
#	67261
#	81939
#	100264
#	117652
#	134408
#	154558
#	170755
#	189601
#	207003
#
# Disc length: 2934 seconds
#
# Revision: 0
# Processed by: cddbd v1.5.2PL0 Copyright (c) Steve Scherf et al.
# Submitted via: CDex 1.70beta2
#
DISCID=b10b740d
DTITLE=Blech and Brass Banda - Nicht nur für uns
DYEAR=2008
DGENRE=Blasmusik
TTITLE0=Kutska (Polka)
TTITLE1=Zlaticko (Polka)
TTITLE2=Für uns (Walzer)
TTITLE3=Daniverská (Polka)
TTITLE4=Just for you (Modern)
TTITLE5=Druzstevni (Polka)
TTITLE6=Abenddämmerung (Walzer)
TTITLE7=Bityska (Polka)
TTITLE8=Svinibrodská (Polka)
TTITLE9=Dozinková (Walzer)
TTITLE10=Besame mucho (Solo für Posaune)
TTITLE11=Danka (Polka)
TTITLE12=Dzonkova (Polka)
EXTD=YEAR: 2008
EXTT0=
EXTT1=
EXTT2=
EXTT3=
EXTT4=
EXTT5=
EXTT6=
EXTT7=
EXTT8=
EXTT9=
EXTT10=
EXTT11=
EXTT12=
PLAYORDER=
